<svg xmlns="http://www.w3.org/2000/svg" width="500" height="100" viewBox="0 0 500 100"><path fill="#00CD9F" d="M111.763 53.846h-43.089v-3.846c0-2.564-1.347-3.846-4.04-3.846h-8.079c-2.692 0-4.039 1.282-4.039 3.846v3.846c-5.387 0-9.426 3.846-9.426 8.975v28.205c0 5.129 4.039 8.974 9.426 8.974h59.247c5.386 0 9.426-3.845 9.426-8.974v-28.205c-.001-5.129-4.04-8.975-9.426-8.975zm-29.624 39.744c-9.425 0-17.505-7.692-17.505-16.667 0-8.974 8.08-16.667 17.505-16.667 9.427 0 17.505 7.692 17.505 16.667 0 8.975-8.079 16.667-17.505 16.667zm0-25.641c-5.386 0-9.425 3.847-9.425 8.974 0 5.129 4.04 8.975 9.425 8.975 5.387 0 9.427-3.846 9.427-8.975-.001-5.127-4.041-8.974-9.427-8.974z"/><path fill="#A083C8" d="M12.119 17.948h90.218v28.206h10.772v-46.154h-113.109v91.026h35.01v-10.256h-22.891v-62.822zm74.06-12.82h16.159v7.692h-16.159v-7.692zm-12.119 0h8.079v7.692h-8.079v-7.692zm-12.119 0h8.08v7.692h-8.08v-7.692z"/><path d="M146.331 19.664c7.294-1.428 14.831-2.144 22.614-2.144 17.622 0 26.434 8.291 26.434 24.87 0 18.31-8.865 27.461-26.592 27.461-4.397 0-8.656-.83-12.772-2.492v21.43h-9.684v-69.125zm9.684 39.522c3.803 1.795 8.043 2.692 12.72 2.692 11.41 0 17.117-6.529 17.117-19.586 0-11.396-5.672-17.095-17.012-17.095-4.887 0-9.161.398-12.825 1.196v32.793zm45.544-5.631c0-10.732 7.434-16.098 22.3-16.098 5.478 0 10.26.332 14.342.996v-4.934c0-5.682-4.938-8.522-14.813-8.522-5.654 0-11.446.831-17.379 2.492v-7.476c5.933-1.661 11.725-2.492 17.379-2.492 16.331 0 24.498 5.582 24.498 16.746v35.585h-4.92l-3.874-3.689c-4.782 2.46-10.4 3.689-16.855 3.689-13.786 0-20.678-5.432-20.678-16.297zm22.3-8.622c-8.412 0-12.616 2.824-12.616 8.472 0 5.982 3.664 8.973 10.993 8.973 6.7 0 12.02-1.363 15.964-4.089v-12.36c-3.838-.664-8.617-.996-14.341-.996zm81.871 24.919c0 12.627-8.426 18.938-25.282 18.938-6.77 0-12.772-.831-18.007-2.491v-7.476c5.34 1.661 11.378 2.492 18.113 2.492 10.329 0 15.493-3.822 15.493-11.463v-2.492c-4.118 1.662-8.55 2.492-13.296 2.492-17.379 0-26.068-8.821-26.068-26.465 0-17.244 9.161-25.867 27.481-25.867 7.434 0 14.623.715 21.565 2.144v50.188zm-9.683-43.46c-3.316-.797-7.415-1.196-12.3-1.196-11.692 0-17.538 6.031-17.538 18.091 0 12.394 5.531 18.59 16.595 18.59 5.025 0 9.439-.896 13.243-2.692v-32.793zm65.173 19.936h-37.007c0 10.699 7.085 16.05 21.253 16.05 4.851 0 9.701-.5 14.551-1.497v7.477c-4.85.997-10.747 1.495-17.692 1.495-18.53 0-27.797-8.921-27.797-26.764 0-17.045 8.777-25.568 26.33-25.568 16.824 0 23.607 9.602 20.362 28.807zm-37.007-7.676h28.16c.49-9.17-3.871-13.754-13.085-13.754-9.423-.001-14.447 4.584-15.075 13.754zm47.898 31.2v-52.331h6.543l1.728 6.679c4.817-4.453 10.608-6.679 17.379-6.679v7.676c-6.559 0-11.88 2.21-15.965 6.628v38.027h-9.685zm75.118-23.524h-37.006c0 10.699 7.082 16.05 21.252 16.05 4.852 0 9.701-.5 14.552-1.497v7.477c-4.851.997-10.749 1.495-17.692 1.495-18.53 0-27.796-8.921-27.796-26.764 0-17.045 8.776-25.568 26.328-25.568 16.822 0 23.608 9.602 20.362 28.807zm-37.006-7.676h28.161c.488-9.17-3.873-13.754-13.085-13.754-9.424-.001-14.449 4.584-15.076 13.754zm47.898 28.708v-7.973c6.11 1.992 12.459 2.991 19.056 2.991 8.759 0 13.138-2.493 13.138-7.478 0-4.651-2.879-6.977-8.636-6.977h-8.898c-11.518 0-17.277-5.15-17.277-15.451 0-9.968 7.629-14.952 22.879-14.952 6.559 0 12.894.831 18.999 2.492v7.975c-6.105-1.994-12.44-2.991-18.999-2.991-9.145 0-13.716 2.492-13.716 7.476 0 4.652 2.704 6.978 8.114 6.978h8.898c12.211 0 18.321 5.151 18.321 15.449 0 9.969-7.611 14.953-22.824 14.953-6.596 0-12.945-.83-19.055-2.492z" fill="#8B8796"/></svg>